<mxfile host="app.diagrams.net" modified="2023-10-28T18:18:42.959Z" agent="Mozilla/5.0 (X11; Linux x86_64; rv:109.0) Gecko/20100101 Firefox/118.0" etag="RPg3f3An8x2KMt_LhOuy" version="22.0.8" type="google">
  <diagram name="Page-1" id="fNOBQcNWYQ0wDcDLKWox">
    <mxGraphModel grid="1" page="1" gridSize="10" guides="1" tooltips="1" connect="1" arrows="1" fold="1" pageScale="1" pageWidth="850" pageHeight="1100" math="0" shadow="0">
      <root>
        <mxCell id="0" />
        <mxCell id="1" parent="0" />
        <mxCell id="IpSriZImw8worpqqh06q-16" value="User" style="shape=umlActor;verticalLabelPosition=bottom;verticalAlign=top;html=1;outlineConnect=0;" vertex="1" parent="1">
          <mxGeometry x="90" y="180" width="30" height="60" as="geometry" />
        </mxCell>
        <mxCell id="IpSriZImw8worpqqh06q-17" value="Graphing of Emotions Over Time" style="text;html=1;strokeColor=none;fillColor=none;align=center;verticalAlign=middle;whiteSpace=wrap;rounded=0;" vertex="1" parent="1">
          <mxGeometry x="255" y="40" width="340" height="30" as="geometry" />
        </mxCell>
        <mxCell id="IpSriZImw8worpqqh06q-18" value="" style="rounded=0;whiteSpace=wrap;html=1;fontSize=8;" vertex="1" parent="1">
          <mxGeometry x="255" y="80" width="60" height="30" as="geometry" />
        </mxCell>
        <mxCell id="IpSriZImw8worpqqh06q-19" value="User Interface" style="text;html=1;strokeColor=none;fillColor=none;align=center;verticalAlign=middle;whiteSpace=wrap;rounded=0;fontSize=8;" vertex="1" parent="1">
          <mxGeometry x="255" y="80" width="60" height="30" as="geometry" />
        </mxCell>
        <mxCell id="IpSriZImw8worpqqh06q-20" value="" style="endArrow=none;dashed=1;html=1;rounded=0;entryX=0.5;entryY=1;entryDx=0;entryDy=0;exitX=0.5;exitY=0;exitDx=0;exitDy=0;fontSize=8;" edge="1" parent="1" target="IpSriZImw8worpqqh06q-19">
          <mxGeometry width="50" height="50" relative="1" as="geometry">
            <mxPoint x="285" y="135" as="sourcePoint" />
            <mxPoint x="515" y="115" as="targetPoint" />
            <Array as="points" />
          </mxGeometry>
        </mxCell>
        <mxCell id="IpSriZImw8worpqqh06q-21" value="" style="rounded=0;whiteSpace=wrap;html=1;fontSize=8;" vertex="1" parent="1">
          <mxGeometry x="360" y="80" width="60" height="30" as="geometry" />
        </mxCell>
        <mxCell id="IpSriZImw8worpqqh06q-22" value="Data Base Manager" style="text;html=1;strokeColor=none;fillColor=none;align=center;verticalAlign=middle;whiteSpace=wrap;rounded=0;fontSize=8;" vertex="1" parent="1">
          <mxGeometry x="360" y="80" width="60" height="30" as="geometry" />
        </mxCell>
        <mxCell id="IpSriZImw8worpqqh06q-23" value="" style="endArrow=none;dashed=1;html=1;rounded=0;entryX=0.5;entryY=1;entryDx=0;entryDy=0;exitX=0.5;exitY=0;exitDx=0;exitDy=0;fontSize=8;" edge="1" parent="1" target="IpSriZImw8worpqqh06q-22">
          <mxGeometry width="50" height="50" relative="1" as="geometry">
            <mxPoint x="390" y="135" as="sourcePoint" />
            <mxPoint x="620" y="115" as="targetPoint" />
            <Array as="points" />
          </mxGeometry>
        </mxCell>
        <mxCell id="IpSriZImw8worpqqh06q-24" value="" style="rounded=0;whiteSpace=wrap;html=1;fontSize=8;" vertex="1" parent="1">
          <mxGeometry x="680" y="80" width="60" height="30" as="geometry" />
        </mxCell>
        <mxCell id="IpSriZImw8worpqqh06q-25" value="State Manager" style="text;html=1;strokeColor=none;fillColor=none;align=center;verticalAlign=middle;whiteSpace=wrap;rounded=0;fontSize=8;" vertex="1" parent="1">
          <mxGeometry x="680" y="80" width="60" height="30" as="geometry" />
        </mxCell>
        <mxCell id="IpSriZImw8worpqqh06q-26" value="" style="endArrow=none;dashed=1;html=1;rounded=0;entryX=0.5;entryY=1;entryDx=0;entryDy=0;exitX=0.5;exitY=0;exitDx=0;exitDy=0;fontSize=8;" edge="1" parent="1" target="IpSriZImw8worpqqh06q-25">
          <mxGeometry width="50" height="50" relative="1" as="geometry">
            <mxPoint x="710" y="135" as="sourcePoint" />
            <mxPoint x="940" y="115" as="targetPoint" />
            <Array as="points" />
          </mxGeometry>
        </mxCell>
        <mxCell id="IpSriZImw8worpqqh06q-27" value="" style="rounded=0;whiteSpace=wrap;html=1;fontSize=8;" vertex="1" parent="1">
          <mxGeometry x="540" y="80" width="60" height="30" as="geometry" />
        </mxCell>
        <mxCell id="IpSriZImw8worpqqh06q-28" value="Data Base" style="text;html=1;strokeColor=none;fillColor=none;align=center;verticalAlign=middle;whiteSpace=wrap;rounded=0;fontSize=8;" vertex="1" parent="1">
          <mxGeometry x="540" y="80" width="60" height="30" as="geometry" />
        </mxCell>
        <mxCell id="IpSriZImw8worpqqh06q-29" value="" style="endArrow=none;dashed=1;html=1;rounded=0;entryX=0.5;entryY=1;entryDx=0;entryDy=0;exitX=0.5;exitY=0;exitDx=0;exitDy=0;fontSize=8;" edge="1" parent="1" target="IpSriZImw8worpqqh06q-28">
          <mxGeometry width="50" height="50" relative="1" as="geometry">
            <mxPoint x="570" y="135" as="sourcePoint" />
            <mxPoint x="800" y="115" as="targetPoint" />
            <Array as="points" />
          </mxGeometry>
        </mxCell>
        <mxCell id="IpSriZImw8worpqqh06q-31" value="&amp;lt;(Date, Emotion)&amp;gt; []" style="text;html=1;strokeColor=none;fillColor=none;align=center;verticalAlign=middle;whiteSpace=wrap;rounded=0;fontSize=9;" vertex="1" parent="1">
          <mxGeometry x="570" y="220" width="130" height="30" as="geometry" />
        </mxCell>
        <mxCell id="IpSriZImw8worpqqh06q-35" value="" style="endArrow=classic;html=1;rounded=0;" edge="1" parent="1">
          <mxGeometry width="50" height="50" relative="1" as="geometry">
            <mxPoint x="700" y="201" as="sourcePoint" />
            <mxPoint x="409.13" y="200" as="targetPoint" />
            <Array as="points">
              <mxPoint x="504.13" y="200" />
            </Array>
          </mxGeometry>
        </mxCell>
        <mxCell id="IpSriZImw8worpqqh06q-40" value="" style="endArrow=classic;html=1;rounded=0;entryX=0.845;entryY=1.071;entryDx=0;entryDy=0;entryPerimeter=0;" edge="1" parent="1">
          <mxGeometry width="50" height="50" relative="1" as="geometry">
            <mxPoint x="300" y="160" as="sourcePoint" />
            <mxPoint x="694.8499999999999" y="160.43999999999994" as="targetPoint" />
          </mxGeometry>
        </mxCell>
        <mxCell id="IpSriZImw8worpqqh06q-41" value="build(Graph_Widget)" style="text;html=1;strokeColor=none;fillColor=none;align=center;verticalAlign=middle;whiteSpace=wrap;rounded=0;fontSize=9;" vertex="1" parent="1">
          <mxGeometry x="585" y="129.99999999999994" width="130" height="30" as="geometry" />
        </mxCell>
        <mxCell id="IpSriZImw8worpqqh06q-44" value="" style="endArrow=classic;html=1;rounded=0;entryX=0.938;entryY=1.024;entryDx=0;entryDy=0;entryPerimeter=0;" edge="1" parent="1" target="IpSriZImw8worpqqh06q-45">
          <mxGeometry width="50" height="50" relative="1" as="geometry">
            <mxPoint x="150" y="149.30999999999995" as="sourcePoint" />
            <mxPoint x="280" y="149.30999999999995" as="targetPoint" />
          </mxGeometry>
        </mxCell>
        <mxCell id="IpSriZImw8worpqqh06q-45" value="Open page with Graph Widget" style="text;html=1;strokeColor=none;fillColor=none;align=center;verticalAlign=middle;whiteSpace=wrap;rounded=0;fontSize=9;" vertex="1" parent="1">
          <mxGeometry x="160" y="119.31000000000017" width="120" height="30" as="geometry" />
        </mxCell>
        <mxCell id="IpSriZImw8worpqqh06q-46" value="" style="rounded=0;whiteSpace=wrap;html=1;" vertex="1" parent="1">
          <mxGeometry x="280" y="130" width="10" height="170" as="geometry" />
        </mxCell>
        <mxCell id="IpSriZImw8worpqqh06q-47" value="" style="rounded=0;whiteSpace=wrap;html=1;" vertex="1" parent="1">
          <mxGeometry x="385" y="130" width="10" height="170" as="geometry" />
        </mxCell>
        <mxCell id="IpSriZImw8worpqqh06q-48" value="" style="rounded=0;whiteSpace=wrap;html=1;" vertex="1" parent="1">
          <mxGeometry x="565" y="140" width="10" height="160" as="geometry" />
        </mxCell>
        <mxCell id="IpSriZImw8worpqqh06q-49" value="" style="rounded=0;whiteSpace=wrap;html=1;" vertex="1" parent="1">
          <mxGeometry x="705" y="140" width="10" height="160" as="geometry" />
        </mxCell>
        <mxCell id="IpSriZImw8worpqqh06q-50" value="" style="endArrow=classic;html=1;rounded=0;dashed=1;" edge="1" parent="1">
          <mxGeometry width="50" height="50" relative="1" as="geometry">
            <mxPoint x="575" y="260" as="sourcePoint" />
            <mxPoint x="695" y="260" as="targetPoint" />
          </mxGeometry>
        </mxCell>
        <mxCell id="6FbyLWqNKEiZz5ubgKQf-1" value="&lt;font style=&quot;font-size: 9px;&quot;&gt;search(&quot;select emotion, date from entries in date range&quot;)&lt;/font&gt;" style="text;html=1;strokeColor=none;fillColor=none;align=center;verticalAlign=middle;whiteSpace=wrap;rounded=0;fontSize=10;" vertex="1" parent="1">
          <mxGeometry x="395" y="160" width="170" height="40.57" as="geometry" />
        </mxCell>
        <mxCell id="6FbyLWqNKEiZz5ubgKQf-4" value="Display Graph Widget" style="text;html=1;strokeColor=none;fillColor=none;align=center;verticalAlign=middle;whiteSpace=wrap;rounded=0;fontSize=9;" vertex="1" parent="1">
          <mxGeometry x="150" y="250" width="130" height="30" as="geometry" />
        </mxCell>
        <mxCell id="6FbyLWqNKEiZz5ubgKQf-5" value="" style="endArrow=classic;html=1;rounded=0;entryX=0;entryY=1;entryDx=0;entryDy=0;" edge="1" parent="1" target="6FbyLWqNKEiZz5ubgKQf-4">
          <mxGeometry width="50" height="50" relative="1" as="geometry">
            <mxPoint x="695" y="279.52" as="sourcePoint" />
            <mxPoint x="145" y="279.52" as="targetPoint" />
          </mxGeometry>
        </mxCell>
      </root>
    </mxGraphModel>
  </diagram>
</mxfile>
